<svg xmlns="http://www.w3.org/2000/svg" viewBox="0 0 400 380" width="400" height="380">
  <defs>
    <linearGradient id="gkF2" x1="0%" y1="0%" x2="0%" y2="100%">
      <stop offset="0%" stop-color="#D4B85C"/>
      <stop offset="100%" stop-color="#A8893A"/>
    </linearGradient>
    <linearGradient id="gkhF2" x1="0%" y1="0%" x2="100%" y2="0%">
      <stop offset="0%" stop-color="transparent"/>
      <stop offset="20%" stop-color="#C9A84C"/>
      <stop offset="80%" stop-color="#C9A84C"/>
      <stop offset="100%" stop-color="transparent"/>
    </linearGradient>
    <radialGradient id="kgF2" cx="50%" cy="35%" r="35%">
      <stop offset="0%" stop-color="#C9A84C" stop-opacity="0.08"/>
      <stop offset="100%" stop-color="#C9A84C" stop-opacity="0"/>
    </radialGradient>
  </defs>

  <!-- Glow -->
  <circle cx="200" cy="130" r="100" fill="url(#kgF2)"/>

  <!-- Outer circle -->
  <circle cx="200" cy="130" r="75" fill="none" stroke="url(#gkF2)" stroke-width="2.5"/>
  <!-- Inner circle -->
  <circle cx="200" cy="130" r="65" fill="none" stroke="#C9A84C" stroke-width="0.8" opacity="0.3"/>

  <!-- 4 petals -->
  <path d="M 200 75 Q 218 100 200 122 Q 182 100 200 75" fill="none" stroke="url(#gkF2)" stroke-width="1.5"/>
  <path d="M 255 130 Q 230 148 208 130 Q 230 112 255 130" fill="none" stroke="url(#gkF2)" stroke-width="1.5"/>
  <path d="M 200 185 Q 182 160 200 138 Q 218 160 200 185" fill="none" stroke="url(#gkF2)" stroke-width="1.5"/>
  <path d="M 145 130 Q 170 112 192 130 Q 170 148 145 130" fill="none" stroke="url(#gkF2)" stroke-width="1.5"/>

  <!-- Rose center -->
  <circle cx="200" cy="130" r="10" fill="none" stroke="url(#gkF2)" stroke-width="1.5"/>
  <circle cx="200" cy="130" r="3.5" fill="#C9A84C" opacity="0.5"/>

  <!-- Brand name -->
  <line x1="120" y1="232" x2="280" y2="232" stroke="url(#gkhF2)" stroke-width="0.5" opacity="0.35"/>

  <text x="200" y="262" text-anchor="middle" font-family="Georgia, 'Times New Roman', serif" font-size="32" font-weight="400" letter-spacing="8" fill="#FFFFF0">PURANI</text>
  <text x="200" y="296" text-anchor="middle" font-family="Georgia, 'Times New Roman', serif" font-size="30" font-weight="300" letter-spacing="10" fill="url(#gkF2)">GALI</text>

  <line x1="120" y1="312" x2="280" y2="312" stroke="url(#gkhF2)" stroke-width="0.5" opacity="0.35"/>

  <text x="200" y="340" text-anchor="middle" font-family="'Helvetica Neue', Helvetica, Arial, sans-serif" font-size="9" font-weight="300" letter-spacing="5" fill="#C4A882" opacity="0.55">CRAFTED ATTAR</text>
</svg>
